HIERARCHY
ROOT Hips
{
	OFFSET 0.00000 0.00000 0.00000
	CHANNELS 6 Xposition Yposition Zposition Zrotation Yrotation Xrotation 
	JOINT LHipJoint
	{
		OFFSET 0 0 0
		CHANNELS 3 Zrotation Yrotation Xrotation
		JOINT LeftUpLeg
		{
			OFFSET 1.92384 -1.64427 0.83032
			CHANNELS 3 Zrotation Yrotation Xrotation
			JOINT LeftLeg
			{
				OFFSET 2.52872 -6.94761 0.00000
				CHANNELS 3 Zrotation Yrotation Xrotation
				JOINT LeftFoot
				{
					OFFSET 2.51827 -6.91890 0.00000
					CHANNELS 3 Zrotation Yrotation Xrotation
					JOINT LeftToeBase
					{
						OFFSET 0.22757 -0.62524 2.06528
						CHANNELS 3 Zrotation Yrotation Xrotation
						End Site
						{
							OFFSET 0.00000 -0.00000 1.08218
						}
					}
				}
			}
		}
	}
	JOINT RHipJoint
	{
		OFFSET 0 0 0
		CHANNELS 3 Zrotation Yrotation Xrotation
		JOINT RightUpLeg
		{
			OFFSET -2.09517 -1.64427 0.83032
			CHANNELS 3 Zrotation Yrotation Xrotation
			JOINT RightLeg
			{
				OFFSET -2.55173 -7.01082 0.00000
				CHANNELS 3 Zrotation Yrotation Xrotation
				JOINT RightFoot
				{
					OFFSET -2.50265 -6.87598 0.00000
					CHANNELS 3 Zrotation Yrotation Xrotation
					JOINT RightToeBase
					{
						OFFSET -0.22612 -0.62126 1.98677
						CHANNELS 3 Zrotation Yrotation Xrotation
						End Site
						{
							OFFSET -0.00000 -0.00000 1.04433
						}
					}
				}
			}
		}
	}
	JOINT LowerBack
	{
		OFFSET 0 0 0
		CHANNELS 3 Zrotation Yrotation Xrotation
		JOINT Spine
		{
			OFFSET 0.02839 1.68926 0.31690
			CHANNELS 3 Zrotation Yrotation Xrotation
			JOINT Spine1
			{
				OFFSET -0.01522 1.70183 0.21192
				CHANNELS 3 Zrotation Yrotation Xrotation
				JOINT Neck
				{
					OFFSET 0 0 0
					CHANNELS 3 Zrotation Yrotation Xrotation
					JOINT Neck1
					{
						OFFSET -0.04523 1.88988 0.10630
						CHANNELS 3 Zrotation Yrotation Xrotation
						JOINT Head
						{
							OFFSET 0.05172 1.78070 -0.56858
							CHANNELS 3 Zrotation Yrotation Xrotation
							End Site
							{
								OFFSET 0.01532 1.90392 -0.20434
							}
						}
					}
				}
				JOINT LeftShoulder
				{
					OFFSET 0 0 0
					CHANNELS 3 Zrotation Yrotation Xrotation
					JOINT LeftArm
					{
						OFFSET 3.25522 0.75486 0.22086
						CHANNELS 3 Zrotation Yrotation Xrotation
						JOINT LeftForeArm
						{
							OFFSET 4.85645 -0.00000 0.00000
							CHANNELS 3 Zrotation Yrotation Xrotation
							JOINT LeftHand
							{
								OFFSET 2.79874 -0.00000 0.00000
								CHANNELS 3 Zrotation Yrotation Xrotation
								JOINT LeftFingerBase
								{
									OFFSET 0 0 0
									CHANNELS 3 Zrotation Yrotation Xrotation
									JOINT LeftHandIndex1
									{
										OFFSET 0.57340 -0.00000 0.00000
										CHANNELS 3 Zrotation Yrotation Xrotation
										End Site
										{
											OFFSET 0.46229 -0.00000 0.00000
										}
									}
								}
								JOINT LThumb
								{
									OFFSET 0 0 0
									CHANNELS 3 Zrotation Yrotation Xrotation
									End Site
									{
										OFFSET 0.46935 -0.00000 0.46935
									}
								}
							}
						}
					}
				}
				JOINT RightShoulder
				{
					OFFSET 0 0 0
					CHANNELS 3 Zrotation Yrotation Xrotation
					JOINT RightArm
					{
						OFFSET -3.29079 0.52751 0.36356
						CHANNELS 3 Zrotation Yrotation Xrotation
						JOINT RightForeArm
						{
							OFFSET -4.67018 -0.00000 0.00000
							CHANNELS 3 Zrotation Yrotation Xrotation
							JOINT RightHand
							{
								OFFSET -2.65534 -0.00000 0.00000
								CHANNELS 3 Zrotation Yrotation Xrotation
								JOINT RightFingerBase
								{
									OFFSET 0 0 0
									CHANNELS 3 Zrotation Yrotation Xrotation
									JOINT RightHandIndex1
									{
										OFFSET -0.59407 -0.00000 0.00000
										CHANNELS 3 Zrotation Yrotation Xrotation
										End Site
										{
											OFFSET -0.47895 -0.00000 0.00000
										}
									}
								}
								JOINT RThumb
								{
									OFFSET 0 0 0
									CHANNELS 3 Zrotation Yrotation Xrotation
									End Site
									{
										OFFSET -0.48627 -0.00000 0.48627
									}
								}
							}
						}
					}
				}
			}
		}
	}
}
MOTION
Frames: 11
Frame Time: .0083333
5.8598 9.4242 -3.0459 0 0 0 0 0 0 -21 0 0 0 0 0 0 0 0 0 0 0 0 0 0 21 0 0 0 0 0 0 0 0 0 0 0 0 0 0 0 0 0 0 0 0 0 0 -16 0 0 21 0 0 11 0 0 0 -8 0 0 0 0 0 0 0 0 0 0 0 0 0 0 0 0 0 0 0 0 8 0 0 0 0 0 0 0 0 0 0 0 0 0 0 0 0 0
5.8598 9.4242 -3.0459 -2.7289 -0.3011 19.1512 0.0000 0.0000 0.0000 9.3037 -10.5131 -117.9494 22.5193 19.8471 97.3840 0.1341 3.3526 6.5667 0.2273 -3.0690 -8.4709 0.0000 0.0000 0.0000 -4.6908 5.9394 -115.4652 -22.6451 -19.8314 97.7548 -0.2669 -4.7140 9.2686 -1.0662 -6.5644 18.4312 3.0195 -1.0218 -2.2405 3.3510 -1.1301 -8.0768 1.8694 -0.6352 -7.1688 -4.8436 -2.4900 -15.2263 4.4293 -3.7756 32.1157 1.9917 -1.6616 13.5668 -0.0000 0.0000 0.0000 -61.1568 25.5150 88.0528 32.4998 -42.9420 -13.0800 -0.0000 -0.0000 30.9702 30.7774 28.2049 15.7213 -7.1250 0.0000 -0.0000 0.3477 61.9526 0.1434 -0.0000 0.0000 0.0000 44.7259 -18.4689 98.7928 -48.2937 52.2837 -24.8179 0.0000 0.0000 28.4647 -24.6663 -9.6604 4.4067 7.1250 -0.0000 -0.0000 2.0424 -40.5807 0.2227
5.8592 9.4220 -3.0447 -2.7193 -0.3038 19.1624 0.0000 0.0000 0.0000 9.3142 -10.5129 -117.9903 22.5239 19.8466 97.3974 0.1322 3.3533 6.5230 0.2207 -3.0242 -8.3462 0.0000 0.0000 0.0000 -4.6951 5.9275 -115.4992 -22.6518 -19.8306 97.7744 -0.2667 -4.6705 9.2603 -1.0548 -6.5304 18.3313 3.0619 -0.9962 -2.2163 3.3164 -1.0972 -8.0307 1.8072 -0.6226 -7.1347 -4.7246 -2.4355 -15.1644 4.4066 -3.7337 32.2836 1.9721 -1.6325 13.6199 -0.0000 0.0000 0.0000 -61.2636 25.4736 87.6656 32.7511 -43.1378 -13.2516 -0.0000 -0.0000 31.3804 29.4438 28.6615 15.1492 -7.1250 0.0000 -0.0000 -1.4775 62.0896 -0.6141 -0.0000 0.0000 0.0000 44.8218 -18.4541 98.7314 -48.5470 52.3924 -25.0184 0.0000 0.0000 28.2729 -24.6045 -9.9977 4.5455 7.1250 -0.0000 -0.0000 2.1321 -40.9435 0.2134
5.8583 9.4240 -3.0467 -2.7197 -0.3173 19.1758 0.0000 0.0000 0.0000 9.3194 -10.5094 -117.9733 22.5196 19.8471 97.3849 0.1293 3.3568 6.4556 0.2186 -3.0099 -8.3063 0.0000 0.0000 0.0000 -4.6865 5.9477 -115.5043 -22.6452 -19.8314 97.7551 -0.2666 -4.6199 9.2528 -1.0237 -6.4364 18.0559 3.0635 -0.9888 -2.1901 3.3206 -1.0871 -7.9959 1.8098 -0.6172 -7.1120 -4.6729 -2.3779 -15.0303 4.3987 -3.6734 32.4149 1.9729 -1.6026 13.6422 0.0000 0.0000 0.0000 -61.4716 25.5175 87.1868 32.9256 -43.2728 -13.3711 -0.0000 -0.0000 32.0843 29.0570 29.1125 15.1266 -7.1250 0.0000 -0.0000 -2.1534 62.4668 -0.9143 0.0000 0.0000 0.0000 44.8487 -18.4348 98.7613 -48.8181 52.5076 -25.2333 0.0000 0.0000 27.9707 -24.4679 -10.3116 4.6567 7.1250 -0.0000 -0.0000 2.2875 -41.2731 0.2104
5.8574 9.4216 -3.0436 -2.7105 -0.3232 19.1935 0.0000 0.0000 0.0000 9.3382 -10.5015 -118.0170 22.5272 19.8462 97.4072 0.1300 3.3476 6.4707 0.2175 -3.0024 -8.2855 0.0000 0.0000 0.0000 -4.7126 5.9457 -115.5358 -22.6536 -19.8303 97.7798 -0.2668 -4.5683 9.2492 -0.9980 -6.3574 17.8251 3.0903 -0.9612 -2.1637 3.2885 -1.0514 -7.9523 1.7590 -0.6020 -7.0814 -4.5469 -2.3477 -15.0039 4.3330 -3.6534 32.5983 1.9313 -1.5873 13.7107 -0.0000 0.0000 0.0000 -61.6098 25.4749 86.7836 32.8911 -43.2462 -13.3474 -0.0000 -0.0000 33.4151 28.7123 29.0942 14.9144 -7.1250 0.0000 -0.0000 -2.5668 62.3558 -1.0832 -0.0000 0.0000 0.0000 44.9744 -18.4897 98.6351 -49.0529 52.6063 -25.4198 0.0000 0.0000 27.8445 -24.2333 -10.6345 4.7484 7.1250 -0.0000 -0.0000 2.5333 -41.6017 0.2125
5.8565 9.4213 -3.0437 -2.6958 -0.3163 19.2264 0.0000 0.0000 0.0000 9.3457 -10.5123 -118.0474 22.5262 19.8463 97.4044 0.1287 3.3271 6.4378 0.2230 -3.0399 -8.3898 0.0000 0.0000 0.0000 -4.7249 5.9326 -115.5785 -22.6534 -19.8304 97.7790 -0.2673 -4.5184 9.2523 -0.9633 -6.2492 17.5093 3.0933 -0.9636 -2.1326 3.2875 -1.0542 -7.9220 1.7562 -0.6035 -7.0664 -4.5127 -2.3054 -14.9160 4.3334 -3.6093 32.6930 1.9349 -1.5649 13.7291 -0.0000 0.0000 0.0000 -61.8040 25.3935 86.4320 32.9181 -43.2670 -13.3659 -0.0000 -0.0000 34.2736 27.4969 29.0875 14.1999 -7.1250 0.0000 -0.0000 -4.0348 62.0294 -1.6726 -0.0000 0.0000 0.0000 45.0469 -18.4207 98.6107 -49.1892 52.6632 -25.5281 0.0000 0.0000 27.6021 -24.7717 -11.6200 5.3103 7.1250 -0.0000 -0.0000 2.1700 -42.7302 0.1216
5.8558 9.4231 -3.0448 -2.6888 -0.3296 19.2534 0.0000 0.0000 0.0000 9.3614 -10.5090 -118.0612 22.5206 19.8470 97.3878 0.1285 3.3337 6.4346 0.2215 -3.0294 -8.3607 0.0000 0.0000 0.0000 -4.8459 5.9976 -115.5706 -22.6487 -19.8310 97.7653 -0.2650 -4.3840 9.2006 -0.8662 -5.9345 16.5944 3.1189 -0.9382 -2.1191 3.2548 -1.0220 -7.8884 1.7056 -0.5900 -7.0391 -4.4276 -2.2833 -14.8056 4.2760 -3.5950 32.8752 1.9031 -1.5571 13.7805 0.0000 0.0000 0.0000 -62.0732 25.3073 85.8811 32.9269 -43.2738 -13.3719 -0.0000 -0.0000 34.9378 27.1803 29.8335 14.3300 -7.1250 0.0000 -0.0000 -4.8032 62.7260 -2.0707 0.0000 0.0000 0.0000 45.1687 -18.4235 98.5798 -49.3537 52.7315 -25.6589 0.0000 0.0000 27.4213 -24.7942 -11.5151 5.2687 7.1250 -0.0000 -0.0000 2.1367 -42.6182 0.1256
5.8546 9.4232 -3.0445 -2.6915 -0.3369 19.2871 0.0000 0.0000 0.0000 9.3771 -10.4974 -118.0838 22.5186 19.8472 97.3820 0.1264 3.3148 6.3822 0.2192 -3.0137 -8.3169 0.0000 0.0000 0.0000 -4.9124 6.0393 -115.5889 -22.6455 -19.8314 97.7558 -0.2628 -4.3224 9.1589 -0.8164 -5.7657 16.1061 3.1854 -0.8956 -2.0947 3.1982 -0.9673 -7.8319 1.6057 -0.5685 -6.9945 -4.3501 -2.2346 -14.7734 4.3382 -3.5734 32.9908 1.9205 -1.5296 13.8225 -0.0000 0.0000 0.0000 -62.2647 25.1210 85.3580 32.8486 -43.2133 -13.3183 -0.0000 -0.0000 35.9202 25.7630 29.8515 13.5080 -7.1250 0.0000 -0.0000 -6.5145 62.3713 -2.7569 -0.0000 0.0000 0.0000 45.3610 -18.4502 98.4308 -49.4955 52.7900 -25.7718 0.0000 0.0000 27.2796 -22.4295 -10.2149 4.1866 7.1250 -0.0000 -0.0000 4.0789 -40.9772 0.4054
5.8546 9.4264 -3.0458 -2.6982 -0.3522 19.3088 0.0000 0.0000 0.0000 9.4015 -10.4925 -118.0922 22.5063 19.8487 97.3458 0.1291 3.3325 6.4466 0.2257 -3.0578 -8.4398 0.0000 0.0000 0.0000 -4.7997 6.0140 -115.6149 -22.6351 -19.8327 97.7252 -0.2641 -4.2850 9.1767 -0.8255 -5.7968 16.1959 3.2483 -0.8591 -2.0664 3.1568 -0.9192 -7.7916 1.5247 -0.5497 -6.9693 -4.2677 -2.2067 -14.6660 4.3039 -3.5544 33.1204 1.8983 -1.5167 13.8520 -0.0000 0.0000 0.0000 -62.4040 25.0143 84.8569 32.8404 -43.2070 -13.3127 -0.0000 -0.0000 37.1667 24.4320 29.8105 12.7264 -7.1250 0.0000 -0.0000 -8.0597 61.9844 -3.3414 -0.0000 0.0000 0.0000 45.5114 -18.5147 98.3332 -49.6293 52.8449 -25.8784 0.0000 0.0000 27.1739 -22.2873 -10.3168 4.1982 7.1250 -0.0000 -0.0000 4.2180 -41.0733 0.4093
5.8537 9.4243 -3.0419 -2.6662 -0.3564 19.3576 0.0000 0.0000 0.0000 9.3987 -10.4952 -118.1519 22.5111 19.8481 97.3599 0.1277 3.3305 6.4140 0.2203 -3.0214 -8.3382 0.0000 0.0000 0.0000 -4.8520 5.9977 -115.6880 -22.6412 -19.8319 97.7432 -0.2649 -4.2792 9.1887 -0.8193 -5.7755 16.1345 3.2737 -0.8268 -2.0586 3.1111 -0.8790 -7.7483 1.4598 -0.5325 -6.9281 -4.2071 -2.1877 -14.6281 4.2731 -3.5404 33.2556 1.8803 -1.5071 13.9005 0.0000 0.0000 0.0000 -62.5298 24.8587 84.4101 32.8034 -43.1784 -13.2874 -0.0000 -0.0000 38.3330 23.6513 29.7181 12.2493 -7.1250 0.0000 -0.0000 -8.9119 61.6911 -3.6358 0.0000 0.0000 0.0000 45.6648 -18.5546 98.2429 -49.7196 52.8818 -25.9504 0.0000 0.0000 27.0078 -22.3433 -10.7101 4.3679 7.1250 -0.0000 -0.0000 4.2224 -41.4998 0.3653
5.8528 9.4255 -3.0407 -2.6808 -0.3718 19.3989 0.0000 0.0000 0.0000 9.4267 -10.4679 -118.1821 22.5090 19.8484 97.3535 0.1276 3.3307 6.4124 0.2151 -2.9861 -8.2401 0.0000 0.0000 0.0000 -4.8307 6.0211 -115.7254 -22.6360 -19.8326 97.7277 -0.2644 -4.2442 9.1778 -0.7976 -5.7003 15.9174 3.3403 -0.7793 -2.0184 3.0765 -0.8142 -7.7225 1.3840 -0.5054 -6.9252 -4.1606 -2.1822 -14.5340 4.2277 -3.5394 33.3981 1.8571 -1.5077 13.9407 0.0000 -0.0000 0.0000 -62.5991 24.6913 84.1500 32.7586 -43.1437 -13.2567 -0.0000 -0.0000 39.2799 22.4760 29.5995 11.5495 -7.1250 0.0000 -0.0000 -10.1879 61.2756 -4.0617 0.0000 -0.0000 0.0000 45.7934 -18.7023 98.1405 -49.8157 52.9209 -26.0271 0.0000 0.0000 26.8675 -22.3391 -10.9373 4.4582 7.1250 -0.0000 -0.0000 4.2581 -41.7426 0.3429
